<svg width="168" height="43" viewBox="0 0 168 43" fill="none" xmlns="http://www.w3.org/2000/svg">
<path d="M146.788 42.9881H97.4578V20.4293C97.4578 9.44941 106.415 0.598909 117.377 0.598909H147.39C158.753 0.598909 167.978 9.78213 167.978 21.0948V21.8268C168.045 33.4722 158.553 42.9881 146.788 42.9881Z" fill="#3377FF"/>
<path d="M0.133687 0.598909H9.6923C9.75915 0.598909 9.82599 0.665454 9.82599 0.732V42.1896C9.82599 42.2561 9.75915 42.3227 9.6923 42.3227H0.133687C0.0668435 42.3227 0 42.2561 0 42.1896V0.732C0 0.665454 0.0668435 0.598909 0.133687 0.598909Z" fill="white"/>
<path d="M49.6647 0.598909H59.2233C59.2902 0.598909 59.357 0.665454 59.357 0.732V42.1896C59.357 42.2561 59.2902 42.3227 59.2233 42.3227H49.6647C49.5979 42.3227 49.531 42.2561 49.531 42.1896V0.732C49.531 0.665454 49.5979 0.598909 49.6647 0.598909Z" fill="white"/>
<path d="M67.044 0.598909H76.5358C76.6026 0.598909 76.6695 0.665454 76.6695 0.732V33.938C76.6695 34.0045 76.7363 34.0711 76.8032 34.0711H90.105C90.1719 34.0711 90.2387 34.1376 90.2387 34.2042V42.2561C90.2387 42.3227 90.1719 42.3892 90.105 42.3892H66.9772C66.9103 42.3892 66.8435 42.3227 66.8435 42.2561V0.732C66.9103 0.665454 66.9772 0.598909 67.044 0.598909Z" fill="white"/>
<path d="M43.6488 25.154C43.114 23.8231 42.3788 22.6919 41.3093 21.6937C40.3066 20.6955 39.0366 19.897 37.566 19.165C36.3629 18.5661 34.9591 18.0337 33.4217 17.5679C33.0875 17.5014 32.8201 17.3683 32.4859 17.3017C31.7507 17.1021 31.0154 16.8359 30.4138 16.6363C28.1411 15.6381 26.7374 14.3072 26.6705 14.2406C24.1973 11.3127 28.0743 9.98176 28.0743 9.98176C32.2854 8.45123 37.4324 12.5105 38.3013 13.2425C38.3682 13.309 38.435 13.309 38.5018 13.1759L42.7798 6.0556L43.1809 5.39015C43.2477 5.32361 43.1809 5.25706 43.1809 5.19052C41.2424 3.52689 39.1703 2.26253 36.8976 1.3309C34.5581 0.465816 32.0849 0 29.2774 0C27.339 0 25.6011 0.26618 23.9968 0.865086C22.3926 1.46399 20.9889 2.32908 19.8525 3.46034C18.7162 4.59161 17.7804 5.92251 17.1788 7.45305C16.5103 8.98359 16.243 10.7138 16.243 12.6436V12.7767C16.243 14.8396 16.5103 16.5697 17.1119 17.9672C17.7135 19.3646 18.5156 20.4959 19.5851 21.4275C20.6546 22.3592 21.9915 23.1577 23.5289 23.7566C24.8658 24.289 26.3363 24.8213 27.9406 25.2871C33.8228 26.9508 34.4244 28.6809 34.4244 28.6809C36.4297 33.0729 30.2801 33.6718 30.0796 33.6718C25.2 33.7384 20.922 29.7457 20.1867 28.9471C20.1199 28.8806 20.053 28.8806 19.9862 28.9471L17.3793 32.8067L14.8393 36.2005C14.7724 36.2671 14.7724 36.3336 14.8393 36.4002C17.0451 38.5962 19.5183 40.2598 22.2589 41.3245C24.9995 42.3892 27.8069 42.9881 30.6812 42.9881C32.6865 42.9881 34.5581 42.722 36.2292 42.123C37.9003 41.5241 39.3708 40.7256 40.574 39.5943C41.7772 38.5296 42.713 37.1322 43.3814 35.5351C44.0499 33.938 44.3841 32.0747 44.3841 30.0118V29.8787C44.4509 28.082 44.1835 26.4849 43.6488 25.154ZM28.3416 34.6034C29.2774 34.67 30.1464 34.7365 31.0154 34.8031C30.9485 34.8031 30.8817 34.8031 30.8817 34.8031C30.0127 34.8696 29.1438 34.7365 28.3416 34.6034Z" fill="white"/>
<path d="M147.323 7.18688C139.435 7.18688 133.019 13.7083 133.019 21.7603C133.019 29.8122 139.435 36.3336 147.323 36.3336C155.211 36.3336 161.628 29.8122 161.628 21.7603C161.628 13.7083 155.211 7.18688 147.323 7.18688ZM147.323 29.8122C142.978 29.8122 139.435 26.2188 139.435 21.7603C139.435 17.3017 142.978 13.7083 147.323 13.7083C151.668 13.7083 155.211 17.3017 155.211 21.7603C155.211 26.2188 151.668 29.8122 147.323 29.8122Z" fill="white"/>
<path d="M130.612 21.7602C130.612 21.5606 130.612 21.2944 130.545 21.1613C130.345 20.4293 129.81 19.8304 129.075 19.6973C129.008 19.6973 128.941 19.6973 128.874 19.6308C128.807 19.6308 128.807 19.6308 128.741 19.6308C128.273 19.6308 127.671 19.6308 127.671 19.6308H119.784C119.784 19.6308 117.979 20.0966 117.979 21.4941V24.8879H125.064C123.928 27.8824 121.187 29.9453 117.979 29.9453C113.768 29.9453 110.292 26.2188 110.292 21.6937C110.292 17.1686 113.701 13.4421 117.979 13.4421C120.118 13.4421 122.39 14.041 123.928 15.4385C124.329 15.7712 124.864 15.7712 125.198 15.3719C125.933 14.5734 126.802 13.5086 127.604 12.577C127.938 12.2443 127.938 11.7119 127.604 11.3792C125.131 8.51776 121.254 7.3865 117.31 7.3865C109.958 7.3865 103.942 13.9079 103.942 21.9599C103.942 30.0118 109.891 36.5332 117.31 36.5332C117.31 36.5332 117.377 36.5332 117.511 36.5332C118.714 36.5332 119.85 36.3336 120.987 36.0009C124.997 34.9362 131.147 31.6089 130.612 21.7602Z" fill="white"/>
</svg>
